<svg xmlns="http://www.w3.org/2000/svg" xmlns:xlink="http://www.w3.org/1999/xlink" width="150" zoomAndPan="magnify" viewBox="0 0 112.5 74.999997" height="100" preserveAspectRatio="xMidYMid meet" version="1.0"><defs><filter x="0%" y="0%" width="100%" height="100%" id="556936fa1f"><feColorMatrix values="0 0 0 0 1 0 0 0 0 1 0 0 0 0 1 0 0 0 1 0" color-interpolation-filters="sRGB"/></filter><clipPath id="16949d0a92"><path d="M 1 0.164062 L 109 0.164062 L 109 74 L 1 74 Z M 1 0.164062 " clip-rule="nonzero"/></clipPath><mask id="1563a4f344"><g filter="url(#556936fa1f)"><rect x="-11.25" width="135" fill="#000000" y="-7.5" height="89.999996" fill-opacity="0.7"/></g></mask><clipPath id="ae9cb5260c"><path d="M 0.671875 1 L 107.476562 1 L 107.476562 73.996094 L 0.671875 73.996094 Z M 0.671875 1 " clip-rule="nonzero"/></clipPath><clipPath id="532c6a5b13"><rect x="0" width="108" y="0" height="74"/></clipPath></defs><path fill="#ff985e" d="M 105.609375 19.195312 C 105.609375 19.195312 99.46875 5.019531 80.097656 2.027344 C 60.726562 -0.964844 52.082031 4.398438 46.554688 11.636719 C 41.027344 18.871094 37.105469 10.058594 20.886719 9.429688 C 15.136719 9.207031 8.644531 10.234375 4.699219 14.835938 C 1.65625 18.378906 0.476562 23.863281 3.359375 27.859375 C 5.914062 31.398438 11.761719 36.730469 8.917969 41.554688 C 5.292969 47.699219 0.570312 57.144531 5.609375 64.234375 C 10.648438 71.320312 16.003906 74.3125 31.59375 71.320312 C 47.183594 68.328125 52.695312 62.1875 60.253906 65.964844 C 67.8125 69.746094 83.40625 75.570312 92.695312 73.367188 C 101.988281 71.164062 98.996094 59.824219 98.367188 55.886719 C 97.734375 51.949219 107.972656 47.855469 108.285156 37.304688 C 108.601562 26.753906 107.339844 23.128906 105.609375 19.195312 Z M 105.609375 19.195312 " fill-opacity="1" fill-rule="nonzero"/><g clip-path="url(#16949d0a92)"><g mask="url(#1563a4f344)"><g transform="matrix(1, 0, 0, 1, 1, 0.000000000000006439)"><g clip-path="url(#532c6a5b13)"><g clip-path="url(#ae9cb5260c)"><path fill="#fcfdfe" d="M 104.609375 19.195312 C 104.609375 19.195312 98.46875 5.019531 79.097656 2.027344 C 59.726562 -0.964844 51.082031 4.398438 45.554688 11.636719 C 40.027344 18.871094 36.105469 10.058594 19.886719 9.429688 C 14.136719 9.207031 7.644531 10.234375 3.699219 14.835938 C 0.65625 18.378906 -0.523438 23.863281 2.359375 27.859375 C 4.914062 31.398438 10.761719 36.730469 7.917969 41.554688 C 4.292969 47.699219 -0.429688 57.144531 4.609375 64.234375 C 9.648438 71.320312 15.003906 74.3125 30.59375 71.320312 C 46.183594 68.328125 51.695312 62.1875 59.253906 65.964844 C 66.8125 69.746094 82.40625 75.570312 91.695312 73.367188 C 100.988281 71.164062 97.996094 59.824219 97.367188 55.886719 C 96.734375 51.949219 106.972656 47.855469 107.285156 37.304688 C 107.601562 26.753906 106.339844 23.128906 104.609375 19.195312 Z M 104.609375 19.195312 " fill-opacity="1" fill-rule="nonzero"/></g></g></g></g></g><path stroke-linecap="round" transform="matrix(0.15748, 0, 0, 0.15748, -4.626508, -2.223454)" fill="none" stroke-linejoin="round" d="M 708.012186 302.003165 L 45.997623 302.003165 " stroke="#263238" stroke-width="1" stroke-opacity="1" stroke-miterlimit="10"/><path stroke-linecap="round" transform="matrix(0.15748, 0, 0, 0.15748, -4.626508, -2.223454)" fill="none" stroke-linejoin="round" d="M 708.012186 311.007297 L 45.997623 311.007297 " stroke="#263238" stroke-width="1" stroke-opacity="1" stroke-miterlimit="10"/><path stroke-linecap="butt" transform="matrix(0.15748, 0, 0, 0.15748, -4.626508, -2.223454)" fill-opacity="1" fill="#ff985e" fill-rule="nonzero" stroke-linejoin="miter" d="M 592.347533 297.166234 C 592.347533 300.36605 592.099486 303.441841 591.628195 306.393609 C 591.181709 309.345377 590.51198 311.949878 589.643813 314.207112 C 588.775646 316.464347 587.783455 318.225486 586.667241 319.440919 C 585.551026 320.656353 584.360397 321.276473 583.144963 321.276473 C 581.929529 321.276473 580.763705 320.656353 579.622685 319.440919 C 578.506471 318.225486 577.51428 316.464347 576.646113 314.207112 C 575.777946 311.949878 575.108217 309.345377 574.661731 306.393609 C 574.19044 303.441841 573.942392 300.36605 573.942392 297.166234 C 573.942392 293.966418 574.19044 290.890627 574.661731 287.938859 C 575.108217 284.987091 575.777946 282.38259 576.646113 280.125356 C 577.51428 277.843317 578.506471 276.106983 579.622685 274.891549 C 580.763705 273.676115 581.929529 273.055996 583.144963 273.055996 C 584.360397 273.055996 585.551026 273.676115 586.667241 274.891549 C 587.783455 276.106983 588.775646 277.843317 589.643813 280.125356 C 590.51198 282.38259 591.181709 284.987091 591.628195 287.938859 C 592.099486 290.890627 592.347533 293.966418 592.347533 297.166234 Z M 592.347533 297.166234 " stroke="#263238" stroke-width="1" stroke-opacity="1" stroke-miterlimit="10"/><path stroke-linecap="butt" transform="matrix(0.15748, 0, 0, 0.15748, -4.626508, -2.223454)" fill-opacity="1" fill="#ff985e" fill-rule="nonzero" stroke-linejoin="miter" d="M 611.72006 282.283371 C 608.842707 291.337113 603.311243 297.662329 599.392089 296.397286 C 595.44813 295.157048 594.579963 286.797839 597.457316 277.768902 C 600.33467 268.71516 605.841329 262.389944 609.785288 263.654987 C 613.729247 264.895226 614.572609 273.254434 611.72006 282.283371 Z M 611.72006 282.283371 " stroke="#263238" stroke-width="1" stroke-opacity="1" stroke-miterlimit="10"/><path stroke-linecap="butt" transform="matrix(0.15748, 0, 0, 0.15748, -4.626508, -2.223454)" fill-opacity="1" fill="#ff985e" fill-rule="nonzero" stroke-linejoin="miter" d="M 544.25108 336.829065 C 534.899681 335.241559 527.879931 330.652676 528.549659 326.584694 C 529.244193 322.516711 537.404963 320.507525 546.756362 322.09503 C 556.107761 323.682535 563.127512 328.271418 562.457783 332.339401 C 561.763249 336.407384 553.602479 338.41657 544.25108 336.829065 Z M 544.25108 336.829065 " stroke="#263238" stroke-width="1" stroke-opacity="1" stroke-miterlimit="10"/><path stroke-linecap="butt" transform="matrix(0.15748, 0, 0, 0.15748, -4.626508, -2.223454)" fill-opacity="1" fill="#ff985e" fill-rule="nonzero" stroke-linejoin="miter" d="M 620.376926 314.554379 C 612.538618 322.293468 603.311243 325.666917 599.739355 322.04542 C 596.167468 318.448729 599.590527 309.246158 607.428835 301.482264 C 615.242338 293.743175 624.469713 290.369726 628.0416 293.991223 C 631.613488 297.587915 628.190429 306.790486 620.376926 314.554379 Z M 620.376926 314.554379 " stroke="#263238" stroke-width="1" stroke-opacity="1" stroke-miterlimit="10"/><path stroke-linecap="butt" transform="matrix(0.15748, 0, 0, 0.15748, -4.626508, -2.223454)" fill-opacity="1" fill="#ff985e" fill-rule="nonzero" stroke-linejoin="miter" d="M 566.500961 293.271885 C 574.066416 304.235594 576.323651 315.819423 571.53633 319.093653 C 566.749009 322.392687 556.752685 316.166689 549.212035 305.20298 C 541.646579 294.239271 539.389345 282.680247 544.176666 279.406017 C 548.939182 276.106983 558.96031 282.308176 566.500961 293.271885 Z M 566.500961 293.271885 " stroke="#263238" stroke-width="1" stroke-opacity="1" stroke-miterlimit="10"/><path stroke-linecap="round" transform="matrix(0.15748, 0, 0, 0.15748, -4.626508, -2.223454)" fill="none" stroke-linejoin="miter" d="M 583.789887 320.085843 L 584.509225 393.433555 " stroke="#263238" stroke-width="1" stroke-opacity="1" stroke-miterlimit="10"/><path stroke-linecap="round" transform="matrix(0.15748, 0, 0, 0.15748, -4.626508, -2.223454)" fill="none" stroke-linejoin="miter" d="M 582.946525 288.186907 L 583.789887 320.085843 " stroke="#263238" stroke-width="1" stroke-opacity="1" stroke-miterlimit="10"/><path stroke-linecap="round" transform="matrix(0.15748, 0, 0, 0.15748, -4.626508, -2.223454)" fill="none" stroke-linejoin="miter" d="M 582.996134 283.002709 L 582.946525 285.433577 " stroke="#263238" stroke-width="1" stroke-opacity="1" stroke-miterlimit="10"/><path stroke-linecap="round" transform="matrix(0.15748, 0, 0, 0.15748, -4.626508, -2.223454)" fill="none" stroke-linejoin="miter" d="M 571.511525 317.530952 C 576.125212 327.204813 579.870733 338.962275 580.590071 352.332047 L 580.590071 397.699975 " stroke="#263238" stroke-width="1" stroke-opacity="1" stroke-miterlimit="10"/><path stroke-linecap="round" transform="matrix(0.15748, 0, 0, 0.15748, -4.626508, -2.223454)" fill="none" stroke-linejoin="miter" d="M 555.710885 293.371104 C 560.002111 298.332058 566.302523 306.616852 571.511525 317.530952 " stroke="#263238" stroke-width="1" stroke-opacity="1" stroke-miterlimit="10"/><path stroke-linecap="round" transform="matrix(0.15748, 0, 0, 0.15748, -4.626508, -2.223454)" fill="none" stroke-linejoin="miter" d="M 550.749931 288.112492 C 550.749931 288.112492 551.692512 288.980659 553.255213 290.667384 " stroke="#263238" stroke-width="1" stroke-opacity="1" stroke-miterlimit="10"/><path stroke-linecap="round" transform="matrix(0.15748, 0, 0, 0.15748, -4.626508, -2.223454)" fill="none" stroke-linejoin="miter" d="M 600.309865 320.929206 C 594.952034 328.345833 589.569399 338.044499 585.402197 350.521299 " stroke="#263238" stroke-width="1" stroke-opacity="1" stroke-miterlimit="10"/><path stroke-linecap="round" transform="matrix(0.15748, 0, 0, 0.15748, -4.626508, -2.223454)" fill="none" stroke-linejoin="miter" d="M 610.876698 308.774867 C 607.652078 311.875464 603.980972 315.869032 600.309865 320.929206 " stroke="#263238" stroke-width="1" stroke-opacity="1" stroke-miterlimit="10"/><path stroke-linecap="round" transform="matrix(0.15748, 0, 0, 0.15748, -4.626508, -2.223454)" fill="none" stroke-linejoin="miter" d="M 622.187674 300.167611 C 622.187674 300.167611 618.913444 301.854336 614.126123 305.872709 " stroke="#263238" stroke-width="1" stroke-opacity="1" stroke-miterlimit="10"/><path stroke-linecap="round" transform="matrix(0.15748, 0, 0, 0.15748, -4.626508, -2.223454)" fill="none" stroke-linejoin="miter" d="M 599.912989 294.164857 C 594.828011 310.188739 588.006698 333.877297 584.806883 354.440453 " stroke="#263238" stroke-width="1" stroke-opacity="1" stroke-miterlimit="10"/><path stroke-linecap="round" transform="matrix(0.15748, 0, 0, 0.15748, -4.626508, -2.223454)" fill="none" stroke-linejoin="miter" d="M 603.03839 284.664629 C 602.120614 287.368349 601.078813 290.568165 599.912989 294.164857 " stroke="#263238" stroke-width="1" stroke-opacity="1" stroke-miterlimit="10"/><path stroke-linecap="round" transform="matrix(0.15748, 0, 0, 0.15748, -4.626508, -2.223454)" fill="none" stroke-linejoin="miter" d="M 606.213401 275.462058 C 606.213401 275.462058 605.320429 277.917731 603.881752 282.134542 " stroke="#263238" stroke-width="1" stroke-opacity="1" stroke-miterlimit="10"/><path stroke-linecap="round" transform="matrix(0.15748, 0, 0, 0.15748, -4.626508, -2.223454)" fill="none" stroke-linejoin="miter" d="M 561.986492 330.106971 C 568.336514 332.513034 577.042989 339.259932 580.069171 348.065626 " stroke="#263238" stroke-width="1" stroke-opacity="1" stroke-miterlimit="10"/><path stroke-linecap="round" transform="matrix(0.15748, 0, 0, 0.15748, -4.626508, -2.223454)" fill="none" stroke-linejoin="miter" d="M 550.22903 327.725713 C 553.652089 327.924151 557.844095 328.544271 561.986492 330.106971 " stroke="#263238" stroke-width="1" stroke-opacity="1" stroke-miterlimit="10"/><path stroke-linecap="round" transform="matrix(0.15748, 0, 0, 0.15748, -4.626508, -2.223454)" fill="none" stroke-linejoin="miter" d="M 542.613965 327.899347 C 542.613965 327.899347 543.73018 327.750518 545.615343 327.676104 " stroke="#263238" stroke-width="1" stroke-opacity="1" stroke-miterlimit="10"/><path stroke-linecap="butt" transform="matrix(0.15748, 0, 0, 0.15748, -4.626508, -2.223454)" fill-opacity="1" fill="#ff985e" fill-rule="nonzero" stroke-linejoin="miter" d="M 562.606612 372.101451 C 554.02416 376.119824 545.615343 376.343067 543.879009 372.597546 C 542.11787 368.852025 547.674139 362.551613 556.281395 358.53324 C 564.888651 354.514867 573.272664 354.316429 575.008998 358.037145 C 576.770136 361.782665 571.213868 368.083078 562.606612 372.101451 Z M 562.606612 372.101451 " stroke="#263238" stroke-width="1" stroke-opacity="1" stroke-miterlimit="10"/><path stroke-linecap="round" transform="matrix(0.15748, 0, 0, 0.15748, -4.626508, -2.223454)" fill="none" stroke-linejoin="miter" d="M 562.333759 361.212156 C 565.260722 359.426212 569.080657 357.541049 573.371883 356.499249 C 573.371883 356.499249 576.249236 354.564477 579.275418 356.598468 C 580.441243 357.367416 580.069171 363.196537 580.069171 363.196537 L 580.069171 393.433555 " stroke="#263238" stroke-width="1" stroke-opacity="1" stroke-miterlimit="10"/><path stroke-linecap="round" transform="matrix(0.15748, 0, 0, 0.15748, -4.626508, -2.223454)" fill="none" stroke-linejoin="miter" d="M 556.182176 365.677015 C 556.182176 365.677015 557.025538 364.908067 558.513824 363.791852 " stroke="#263238" stroke-width="1" stroke-opacity="1" stroke-miterlimit="10"/><path stroke-linecap="butt" transform="matrix(0.15748, 0, 0, 0.15748, -4.626508, -2.223454)" fill-opacity="1" fill="#ff985e" fill-rule="nonzero" stroke-linejoin="miter" d="M 624.345689 336.829065 C 633.697089 335.241559 640.716839 330.652676 640.022305 326.584694 C 639.327772 322.516711 631.191807 320.507525 621.840407 322.09503 C 612.489008 323.682535 605.444453 328.271418 606.138987 332.339401 C 606.83352 336.407384 614.969486 338.41657 624.345689 336.829065 Z M 624.345689 336.829065 " stroke="#263238" stroke-width="1" stroke-opacity="1" stroke-miterlimit="10"/><path stroke-linecap="round" transform="matrix(0.15748, 0, 0, 0.15748, -4.626508, -2.223454)" fill="none" stroke-linejoin="miter" d="M 606.808716 330.032557 C 605.692501 330.454238 604.576286 330.925529 603.484876 331.496039 C 595.745787 335.489607 591.008076 343.600767 591.008076 352.282438 L 591.008076 392.26773 " stroke="#263238" stroke-width="1" stroke-opacity="1" stroke-miterlimit="10"/><path stroke-linecap="round" transform="matrix(0.15748, 0, 0, 0.15748, -4.626508, -2.223454)" fill="none" stroke-linejoin="miter" d="M 619.35993 327.676104 C 615.812848 327.800128 611.298379 328.370637 606.808716 330.032557 " stroke="#263238" stroke-width="1" stroke-opacity="1" stroke-miterlimit="10"/><path stroke-linecap="round" transform="matrix(0.15748, 0, 0, 0.15748, -4.626508, -2.223454)" fill="none" stroke-linejoin="miter" d="M 625.982804 327.899347 C 625.982804 327.899347 625.238661 327.800128 623.948813 327.725713 " stroke="#263238" stroke-width="1" stroke-opacity="1" stroke-miterlimit="10"/><path stroke-linecap="butt" transform="matrix(0.15748, 0, 0, 0.15748, -4.626508, -2.223454)" fill-opacity="1" fill="#ff985e" fill-rule="nonzero" stroke-linejoin="miter" d="M 614.944681 364.213533 C 623.15506 368.951245 631.489464 369.893826 633.573065 366.321939 C 635.631861 362.750052 630.621297 356.003154 622.410917 351.265442 C 614.175733 346.527731 605.841329 345.585149 603.782533 349.157036 C 601.723737 352.728924 606.709496 359.475822 614.944681 364.213533 Z M 614.944681 364.213533 " stroke="#263238" stroke-width="1" stroke-opacity="1" stroke-miterlimit="10"/><path stroke-linecap="round" transform="matrix(0.15748, 0, 0, 0.15748, -4.626508, -2.223454)" fill="none" stroke-linejoin="miter" d="M 616.929063 353.969162 C 614.126123 351.835952 610.281384 349.380279 605.766915 347.817579 C 605.766915 347.817579 595.572154 346.130854 593.240505 352.728924 " stroke="#263238" stroke-width="1" stroke-opacity="1" stroke-miterlimit="10"/><path stroke-linecap="round" transform="matrix(0.15748, 0, 0, 0.15748, -4.626508, -2.223454)" fill="none" stroke-linejoin="miter" d="M 621.890017 358.384412 C 621.890017 358.384412 621.393922 357.838707 620.45134 356.945735 " stroke="#263238" stroke-width="1" stroke-opacity="1" stroke-miterlimit="10"/><path stroke-linecap="butt" transform="matrix(0.15748, 0, 0, 0.15748, -4.626508, -2.223454)" fill-opacity="1" fill="#ff985e" fill-rule="nonzero" stroke-linejoin="miter" d="M 594.803206 353.100995 C 594.803206 353.100995 582.772891 350.794151 582.772891 358.930117 C 582.772891 367.066082 591.305733 373.664151 594.803206 382.965941 C 598.275874 392.26773 604.873943 392.664607 608.371416 383.338012 C 611.844084 374.036223 606.808716 356.995344 594.803206 353.100995 Z M 594.803206 353.100995 " stroke="#263238" stroke-width="1" stroke-opacity="1" stroke-miterlimit="10"/><path stroke-linecap="butt" transform="matrix(0.15748, 0, 0, 0.15748, -4.626508, -2.223454)" fill-opacity="1" fill="#ff985e" fill-rule="nonzero" stroke-linejoin="miter" d="M 586.642436 353.497872 C 586.642436 353.497872 597.11005 357.764292 600.210646 371.332503 " stroke="#263238" stroke-width="1" stroke-opacity="1" stroke-miterlimit="10"/><path stroke-linecap="round" transform="matrix(0.15748, 0, 0, 0.15748, -4.626508, -2.223454)" fill="none" stroke-linejoin="miter" d="M 587.436188 371.332503 L 587.436188 393.433555 " stroke="#263238" stroke-width="1" stroke-opacity="1" stroke-miterlimit="10"/><path fill="#000000" d="M 90.914062 66.511719 C 91.34375 65.164062 91.597656 63.605469 91.597656 62.054688 C 91.597656 61.097656 91.5 60.179688 91.324219 59.332031 L 83.613281 59.332031 C 83.4375 60.179688 83.339844 61.097656 83.339844 62.054688 C 83.339844 63.605469 83.589844 65.164062 84.023438 66.511719 Z M 90.914062 66.511719 " fill-opacity="1" fill-rule="nonzero"/><path fill="#ff66c4" d="M 83.414062 60.605469 C 83.394531 60.816406 83.375 61.027344 83.363281 61.242188 L 91.574219 61.242188 C 91.5625 61.027344 91.542969 60.816406 91.523438 60.605469 Z M 83.414062 60.605469 " fill-opacity="1" fill-rule="nonzero"/><path fill="#ff66c4" d="M 91.484375 63.859375 C 91.511719 63.648438 91.535156 63.4375 91.550781 63.222656 L 83.386719 63.222656 C 83.402344 63.4375 83.425781 63.648438 83.449219 63.859375 Z M 91.484375 63.859375 " fill-opacity="1" fill-rule="nonzero"/><path fill="#ff62f8" d="M 84.335938 62.089844 C 84.335938 62.269531 84.1875 62.414062 84.003906 62.414062 C 83.820312 62.414062 83.671875 62.269531 83.671875 62.089844 C 83.671875 61.914062 83.820312 61.769531 84.003906 61.769531 C 84.1875 61.769531 84.335938 61.914062 84.335938 62.089844 Z M 84.335938 62.089844 " fill-opacity="1" fill-rule="nonzero"/><path fill="#ff62f8" d="M 85.996094 62.089844 C 85.996094 62.269531 85.847656 62.414062 85.664062 62.414062 C 85.480469 62.414062 85.332031 62.269531 85.332031 62.089844 C 85.332031 61.914062 85.480469 61.769531 85.664062 61.769531 C 85.847656 61.769531 85.996094 61.914062 85.996094 62.089844 Z M 85.996094 62.089844 " fill-opacity="1" fill-rule="nonzero"/><path fill="#ff62f8" d="M 87.660156 62.089844 C 87.660156 62.269531 87.507812 62.414062 87.324219 62.414062 C 87.144531 62.414062 86.992188 62.269531 86.992188 62.089844 C 86.992188 61.914062 87.144531 61.769531 87.324219 61.769531 C 87.507812 61.769531 87.660156 61.914062 87.660156 62.089844 Z M 87.660156 62.089844 " fill-opacity="1" fill-rule="nonzero"/><path fill="#ff62f8" d="M 89.320312 62.089844 C 89.320312 62.269531 89.171875 62.414062 88.988281 62.414062 C 88.804688 62.414062 88.65625 62.269531 88.65625 62.089844 C 88.65625 61.914062 88.804688 61.769531 88.988281 61.769531 C 89.171875 61.769531 89.320312 61.914062 89.320312 62.089844 Z M 89.320312 62.089844 " fill-opacity="1" fill-rule="nonzero"/><path fill="#ff62f8" d="M 90.980469 62.089844 C 90.980469 62.269531 90.832031 62.414062 90.648438 62.414062 C 90.464844 62.414062 90.316406 62.269531 90.316406 62.089844 C 90.316406 61.914062 90.464844 61.769531 90.648438 61.769531 C 90.832031 61.769531 90.980469 61.914062 90.980469 62.089844 Z M 90.980469 62.089844 " fill-opacity="1" fill-rule="nonzero"/><path stroke-linecap="round" transform="matrix(0.15748, 0, 0, 0.15748, -4.626508, -2.223454)" fill="none" stroke-linejoin="round" d="M 426.67646 56.857602 L 426.67646 242.868588 L 494.71595 242.868588 L 494.71595 56.857602 Z M 491.292892 60.999999 L 491.292892 88.458881 L 462.990647 88.458881 L 462.990647 60.999999 Z M 458.749031 60.999999 L 458.749031 88.458881 L 430.099519 88.458881 L 430.099519 60.999999 Z M 430.099519 92.799716 L 458.749031 92.799716 L 458.749031 120.060161 L 430.099519 120.060161 Z M 491.292892 238.726191 L 430.099519 238.726191 L 430.099519 124.773068 L 491.292892 124.773068 Z M 462.990647 120.060161 L 462.990647 92.799716 L 491.292892 92.799716 L 491.292892 120.060161 Z M 462.990647 120.060161 " stroke="#263238" stroke-width="1" stroke-opacity="1" stroke-miterlimit="10"/><path stroke-linecap="round" transform="matrix(0.15748, 0, 0, 0.15748, -4.626508, -2.223454)" fill="none" stroke-linejoin="round" d="M 494.467903 56.857602 L 494.467903 242.868588 L 562.507393 242.868588 L 562.507393 56.857602 Z M 559.084334 60.999999 L 559.084334 88.458881 L 530.757284 88.458881 L 530.757284 60.999999 Z M 526.515668 60.999999 L 526.515668 88.458881 L 497.890961 88.458881 L 497.890961 60.999999 Z M 497.890961 92.799716 L 526.515668 92.799716 L 526.515668 120.060161 L 497.890961 120.060161 Z M 559.084334 238.726191 L 497.890961 238.726191 L 497.890961 124.773068 L 559.084334 124.773068 Z M 530.757284 120.060161 L 530.757284 92.799716 L 559.084334 92.799716 L 559.084334 120.060161 Z M 530.757284 120.060161 " stroke="#263238" stroke-width="1" stroke-opacity="1" stroke-miterlimit="10"/><path stroke-linecap="round" transform="matrix(0.15748, 0, 0, 0.15748, -4.626508, -2.223454)" fill="none" stroke-linejoin="round" d="M 476.062762 155.655009 L 458.997078 174.531441 " stroke="#263238" stroke-width="1" stroke-opacity="1" stroke-miterlimit="10"/><path stroke-linecap="round" transform="matrix(0.15748, 0, 0, 0.15748, -4.626508, -2.223454)" fill="none" stroke-linejoin="round" d="M 480.304378 150.966907 L 477.600658 153.968285 " stroke="#263238" stroke-width="1" stroke-opacity="1" stroke-miterlimit="10"/><path stroke-linecap="round" transform="matrix(0.15748, 0, 0, 0.15748, -4.626508, -2.223454)" fill="none" stroke-linejoin="round" d="M 440.418304 188.298089 L 436.920831 191.944391 " stroke="#263238" stroke-width="1" stroke-opacity="1" stroke-miterlimit="10"/><path stroke-linecap="round" transform="matrix(0.15748, 0, 0, 0.15748, -4.626508, -2.223454)" fill="none" stroke-linejoin="round" d="M 463.089866 164.609532 L 443.022805 185.544759 " stroke="#263238" stroke-width="1" stroke-opacity="1" stroke-miterlimit="10"/><path stroke-linecap="round" transform="matrix(0.15748, 0, 0, 0.15748, -4.626508, -2.223454)" fill="none" stroke-linejoin="round" d="M 544.896004 161.409716 L 527.805516 180.286148 " stroke="#263238" stroke-width="1" stroke-opacity="1" stroke-miterlimit="10"/><path stroke-linecap="round" transform="matrix(0.15748, 0, 0, 0.15748, -4.626508, -2.223454)" fill="none" stroke-linejoin="round" d="M 549.13762 156.721614 L 546.4339 159.722992 " stroke="#263238" stroke-width="1" stroke-opacity="1" stroke-miterlimit="10"/><path stroke-linecap="round" transform="matrix(0.15748, 0, 0, 0.15748, -4.626508, -2.223454)" fill="none" stroke-linejoin="round" d="M 509.251547 194.052796 L 505.754074 197.699098 " stroke="#263238" stroke-width="1" stroke-opacity="1" stroke-miterlimit="10"/><path stroke-linecap="round" transform="matrix(0.15748, 0, 0, 0.15748, -4.626508, -2.223454)" fill="none" stroke-linejoin="round" d="M 531.923108 170.389044 L 511.856048 191.324271 " stroke="#263238" stroke-width="1" stroke-opacity="1" stroke-miterlimit="10"/><path stroke-linecap="round" transform="matrix(0.15748, 0, 0, 0.15748, -4.626508, -2.223454)" fill="none" stroke-linejoin="round" d="M 571.610744 56.857602 L 571.610744 242.868588 L 639.650234 242.868588 L 639.650234 56.857602 Z M 636.227175 60.999999 L 636.227175 88.458881 L 607.900126 88.458881 L 607.900126 60.999999 Z M 603.658509 60.999999 L 603.658509 88.458881 L 575.033802 88.458881 L 575.033802 60.999999 Z M 575.033802 92.799716 L 603.658509 92.799716 L 603.658509 120.060161 L 575.033802 120.060161 Z M 636.227175 238.726191 L 575.033802 238.726191 L 575.033802 124.773068 L 636.227175 124.773068 Z M 607.900126 120.060161 L 607.900126 92.799716 L 636.227175 92.799716 L 636.227175 120.060161 Z M 607.900126 120.060161 " stroke="#263238" stroke-width="1" stroke-opacity="1" stroke-miterlimit="10"/><path stroke-linecap="round" transform="matrix(0.15748, 0, 0, 0.15748, -4.626508, -2.223454)" fill="none" stroke-linejoin="round" d="M 639.377381 56.857602 L 639.377381 242.868588 L 707.416871 242.868588 L 707.416871 56.857602 Z M 703.993813 60.999999 L 703.993813 88.458881 L 675.691568 88.458881 L 675.691568 60.999999 Z M 671.449952 60.999999 L 671.449952 88.458881 L 642.80044 88.458881 L 642.80044 60.999999 Z M 642.80044 92.799716 L 671.449952 92.799716 L 671.449952 120.060161 L 642.80044 120.060161 Z M 703.993813 238.726191 L 642.80044 238.726191 L 642.80044 124.773068 L 703.993813 124.773068 Z M 675.691568 120.060161 L 675.691568 92.799716 L 703.993813 92.799716 L 703.993813 120.060161 Z M 675.691568 120.060161 " stroke="#263238" stroke-width="1" stroke-opacity="1" stroke-miterlimit="10"/><path stroke-linecap="round" transform="matrix(0.15748, 0, 0, 0.15748, -4.626508, -2.223454)" fill="none" stroke-linejoin="round" d="M 620.997045 155.655009 L 603.906557 174.531441 " stroke="#263238" stroke-width="1" stroke-opacity="1" stroke-miterlimit="10"/><path stroke-linecap="round" transform="matrix(0.15748, 0, 0, 0.15748, -4.626508, -2.223454)" fill="none" stroke-linejoin="round" d="M 625.238661 150.966907 L 622.510136 153.968285 " stroke="#263238" stroke-width="1" stroke-opacity="1" stroke-miterlimit="10"/><path stroke-linecap="round" transform="matrix(0.15748, 0, 0, 0.15748, -4.626508, -2.223454)" fill="none" stroke-linejoin="round" d="M 585.327783 188.298089 L 581.83031 191.944391 " stroke="#263238" stroke-width="1" stroke-opacity="1" stroke-miterlimit="10"/><path stroke-linecap="round" transform="matrix(0.15748, 0, 0, 0.15748, -4.626508, -2.223454)" fill="none" stroke-linejoin="round" d="M 608.024149 164.609532 L 587.957089 185.544759 " stroke="#263238" stroke-width="1" stroke-opacity="1" stroke-miterlimit="10"/><path stroke-linecap="round" transform="matrix(0.15748, 0, 0, 0.15748, -4.626508, -2.223454)" fill="none" stroke-linejoin="round" d="M 689.830288 161.409716 L 672.7398 180.286148 " stroke="#263238" stroke-width="1" stroke-opacity="1" stroke-miterlimit="10"/><path stroke-linecap="round" transform="matrix(0.15748, 0, 0, 0.15748, -4.626508, -2.223454)" fill="none" stroke-linejoin="round" d="M 694.071904 156.721614 L 691.343379 159.722992 " stroke="#263238" stroke-width="1" stroke-opacity="1" stroke-miterlimit="10"/><path stroke-linecap="round" transform="matrix(0.15748, 0, 0, 0.15748, -4.626508, -2.223454)" fill="none" stroke-linejoin="round" d="M 654.161026 194.052796 L 650.663553 197.699098 " stroke="#263238" stroke-width="1" stroke-opacity="1" stroke-miterlimit="10"/><path stroke-linecap="round" transform="matrix(0.15748, 0, 0, 0.15748, -4.626508, -2.223454)" fill="none" stroke-linejoin="round" d="M 676.857392 170.389044 L 656.790331 191.324271 " stroke="#263238" stroke-width="1" stroke-opacity="1" stroke-miterlimit="10"/><path stroke-linecap="butt" transform="matrix(0.111354, -0.111354, 0.111354, 0.111354, -2.53346, 42.923648)" fill-opacity="1" fill="#000000" fill-rule="nonzero" stroke-linejoin="round" d="M 386.998268 127.288216 C 387.015808 129.550849 386.787791 131.778402 386.331756 133.988416 C 385.910801 136.198429 385.244289 138.338284 384.38484 140.425519 C 383.52539 142.512754 382.473003 144.47721 381.227677 146.353968 C 379.982352 148.230725 378.54409 149.949625 376.947969 151.545745 C 375.351848 153.141866 373.632948 154.580129 371.756191 155.825454 C 369.879433 157.070779 367.914977 158.123167 365.827742 158.982616 C 363.740507 159.842066 361.600653 160.508578 359.390639 160.929533 C 357.180626 161.385568 354.970612 161.596045 352.690439 161.596045 C 350.445346 161.596045 348.217793 161.368028 346.007779 160.947073 C 343.797766 160.491038 341.657912 159.859606 339.588216 158.982616 C 337.500981 158.123167 335.536525 157.070779 333.642228 155.807914 C 331.76547 154.562589 330.046571 153.159406 328.45045 151.563285 C 326.854329 149.967164 325.433606 148.230725 324.188281 146.353968 C 322.942956 144.47721 321.873029 142.495214 321.031119 140.425519 C 320.154129 138.355823 319.505157 136.198429 319.066662 134.005956 C 318.628168 131.778402 318.40015 129.550849 318.40015 127.305756 C 318.41769 125.043123 318.610628 122.81557 319.066662 120.605556 C 319.505157 118.413082 320.154129 116.255688 321.013579 114.168453 C 321.873029 112.081218 322.925416 110.116762 324.188281 108.257544 C 325.433606 106.380787 326.854329 104.644347 328.45045 103.048227 C 330.046571 101.452106 331.78301 100.031383 333.659767 98.786058 C 335.518985 97.523193 337.483442 96.470805 339.570677 95.611356 C 341.657912 94.751906 343.815306 94.102934 346.007779 93.664439 C 348.217793 93.208404 350.462886 92.997927 352.707979 92.997927 C 354.953072 92.997927 357.180626 93.225944 359.408179 93.664439 C 361.600653 94.102934 363.758047 94.751906 365.845282 95.611356 C 367.897437 96.470805 369.896973 97.523193 371.756191 98.786058 C 373.632948 100.031383 375.369388 101.452106 376.965509 103.048227 C 378.561629 104.644347 379.964813 106.363247 381.210138 108.240004 C 382.490542 110.116762 383.52539 112.098758 384.402379 114.168453 C 385.261829 116.255688 385.893262 118.395543 386.349296 120.605556 C 386.770251 122.81557 386.998268 125.043123 386.998268 127.288216 Z M 386.998268 127.288216 " stroke="#263238" stroke-width="1" stroke-opacity="1" stroke-miterlimit="10"/><path stroke-linecap="butt" transform="matrix(0.100976, -0.120834, 0.120834, 0.100976, -0.0824134, 47.58979)" fill-opacity="1" fill="#fcfdfe" fill-rule="nonzero" stroke-linejoin="round" d="M 384.071958 127.301541 C 384.081134 129.362823 383.880661 131.405336 383.489575 133.413172 C 383.079453 135.436915 382.481846 137.391041 381.693625 139.31049 C 380.908532 141.194998 379.935953 143.009889 378.794923 144.739255 C 377.657022 146.43368 376.350669 148.042581 374.901157 149.480168 C 373.43261 150.933662 371.852717 152.253911 370.148699 153.386941 C 368.425646 154.535877 366.61341 155.50072 364.711991 156.281472 C 362.810571 157.062224 360.835875 157.677918 358.829101 158.061801 C 356.819198 158.480625 354.758181 158.683543 352.715934 158.676813 C 350.654652 158.685989 348.61214 158.485517 346.588397 158.075395 C 344.564653 157.665274 342.591493 157.083573 340.691078 156.279445 C 338.787535 155.510259 336.972645 154.53768 335.27822 153.399779 C 333.567888 152.242842 331.974894 150.955525 330.521401 149.486978 C 329.048872 148.034338 327.763564 146.457573 326.614628 144.73452 C 325.465692 143.011467 324.500848 141.199231 323.720096 139.297811 C 322.92031 137.412299 322.339557 135.440731 321.920733 133.430828 C 321.520944 131.405018 321.333932 129.363037 321.324756 127.301755 C 321.315579 125.240473 321.516052 123.19796 321.926173 121.174217 C 322.336295 119.150474 322.933902 117.196348 323.703088 115.292806 C 324.507216 113.392391 325.479795 111.5775 326.60179 109.864041 C 327.758726 108.153709 329.06195 106.57975 330.514591 105.107221 C 331.983138 103.653727 333.543996 102.349384 335.267049 101.200449 C 336.990102 100.051513 338.783303 99.102575 340.703757 98.305917 C 342.605177 97.525165 344.560838 96.925378 346.586647 96.525588 C 348.612457 96.125799 350.638532 95.919752 352.699814 95.910576 C 354.777002 95.920435 356.819515 96.120907 358.827351 96.511994 C 360.851094 96.922115 362.80522 97.519722 364.72467 98.307944 C 366.609178 99.093037 368.424068 100.065616 370.153435 101.206645 C 371.84786 102.344547 373.437725 103.666806 374.894347 105.100411 C 376.347841 106.568958 377.649056 108.164758 378.80112 109.852869 C 379.950056 111.575922 380.9149 113.388158 381.695651 115.289578 C 382.476403 117.190997 383.076191 119.146658 383.47598 121.172468 C 383.875769 123.198277 384.097723 125.243387 384.071958 127.301541 Z M 384.071958 127.301541 " stroke="#263238" stroke-width="1" stroke-opacity="1" stroke-miterlimit="10"/><path stroke-linecap="butt" transform="matrix(0.15748, 0, 0, 0.15748, -4.626508, -2.223454)" fill-opacity="1" fill="#000000" fill-rule="nonzero" stroke-linejoin="round" d="M 355.635593 127.303155 C 355.635593 125.690844 354.32094 124.376191 352.70863 124.376191 C 351.09632 124.376191 349.781667 125.690844 349.781667 127.303155 C 349.781667 128.915465 351.09632 130.230118 352.70863 130.230118 C 354.32094 130.230118 355.635593 128.915465 355.635593 127.303155 Z M 355.635593 127.303155 " stroke="#263238" stroke-width="1" stroke-opacity="1" stroke-miterlimit="10"/><path stroke-linecap="butt" transform="matrix(0.15748, 0, 0, 0.15748, -4.626508, -2.223454)" fill-opacity="1" fill="#fcfdfe" fill-rule="nonzero" stroke-linejoin="round" d="M 355.089888 129.46117 L 359.653966 135.240682 " stroke="#263238" stroke-width="1" stroke-opacity="1" stroke-miterlimit="10"/><path stroke-linecap="butt" transform="matrix(0.15748, 0, 0, 0.15748, -4.626508, -2.223454)" fill-opacity="1" fill="#fcfdfe" fill-rule="nonzero" stroke-linejoin="round" d="M 355.089888 125.145139 L 368.062784 106.640779 " stroke="#263238" stroke-width="1" stroke-opacity="1" stroke-miterlimit="10"/><path stroke-linecap="butt" transform="matrix(0.15748, 0, 0, 0.15748, -4.626508, -2.223454)" fill="none" stroke-linejoin="round" d="M 658.229008 431.856147 L 35.009108 431.856147 " stroke="#263238" stroke-width="1" stroke-opacity="1" stroke-miterlimit="10"/><path stroke-linecap="butt" transform="matrix(0.15748, 0, 0, 0.15748, -4.626508, -2.223454)" fill="none" stroke-linejoin="round" d="M 690.003921 431.856147 L 666.414583 431.856147 " stroke="#263238" stroke-width="1" stroke-opacity="1" stroke-miterlimit="10"/><path stroke-linecap="butt" transform="matrix(0.15748, 0, 0, 0.15748, -4.626508, -2.223454)" fill-opacity="1" fill="#fcfdfe" fill-rule="nonzero" stroke-linejoin="round" d="M 305.331515 436.693077 L 300.916266 436.693077 L 300.395365 354.490062 L 305.827611 354.490062 Z M 305.331515 436.693077 " stroke="#263238" stroke-width="1" stroke-opacity="1" stroke-miterlimit="10"/><path stroke-linecap="butt" transform="matrix(0.15748, 0, 0, 0.15748, -4.626508, -2.223454)" fill-opacity="1" fill="#000000" fill-rule="nonzero" stroke-linejoin="miter" d="M 300.42017 357.987535 L 305.827611 357.987535 L 305.827611 354.490062 L 300.395365 354.490062 Z M 300.42017 357.987535 " stroke="#263238" stroke-width="1" stroke-opacity="1" stroke-miterlimit="10"/><path stroke-linecap="butt" transform="matrix(0.15748, 0, 0, 0.15748, -4.626508, -2.223454)" fill-opacity="1" fill="#000000" fill-rule="nonzero" stroke-linejoin="miter" d="M 311.90478 436.693077 L 307.48953 436.693077 L 306.993435 354.490062 L 312.42568 354.490062 Z M 311.90478 436.693077 " stroke="#263238" stroke-width="1" stroke-opacity="1" stroke-miterlimit="10"/><path stroke-linecap="butt" transform="matrix(0.15748, 0, 0, 0.15748, -4.626508, -2.223454)" fill-opacity="1" fill="#fcfdfe" fill-rule="nonzero" stroke-linejoin="round" d="M 389.221254 436.693077 L 384.806005 436.693077 L 384.30991 354.490062 L 389.742155 354.490062 Z M 389.221254 436.693077 " stroke="#263238" stroke-width="1" stroke-opacity="1" stroke-miterlimit="10"/><path stroke-linecap="butt" transform="matrix(0.15748, 0, 0, 0.15748, -4.626508, -2.223454)" fill-opacity="1" fill="#000000" fill-rule="nonzero" stroke-linejoin="miter" d="M 384.30991 357.987535 L 389.71735 357.987535 L 389.742155 354.490062 L 384.30991 354.490062 Z M 384.30991 357.987535 " stroke="#263238" stroke-width="1" stroke-opacity="1" stroke-miterlimit="10"/><path stroke-linecap="butt" transform="matrix(0.15748, 0, 0, 0.15748, -4.626508, -2.223454)" fill-opacity="1" fill="#000000" fill-rule="nonzero" stroke-linejoin="miter" d="M 382.052675 436.693077 L 377.662231 436.693077 L 377.14133 354.490062 L 382.573576 354.490062 Z M 382.052675 436.693077 " stroke="#263238" stroke-width="1" stroke-opacity="1" stroke-miterlimit="10"/><path stroke-linecap="butt" transform="matrix(0.15748, 0, 0, 0.15748, -4.626508, -2.223454)" fill-opacity="1" fill="#fcfdfe" fill-rule="nonzero" stroke-linejoin="round" d="M 391.90017 348.784965 L 299.527198 348.784965 L 311.259856 330.727091 L 380.167513 330.727091 Z M 391.90017 348.784965 " stroke="#263238" stroke-width="1" stroke-opacity="1" stroke-miterlimit="10"/><path stroke-linecap="butt" transform="matrix(0.15748, 0, 0, 0.15748, -4.626508, -2.223454)" fill-opacity="1" fill="#fcfdfe" fill-rule="nonzero" stroke-linejoin="round" d="M 299.527198 348.784965 L 391.999389 348.784965 L 391.999389 354.862134 L 299.527198 354.862134 Z M 299.527198 348.784965 " stroke="#263238" stroke-width="1" stroke-opacity="1" stroke-miterlimit="10"/><path stroke-linecap="butt" transform="matrix(0.15748, 0, 0, 0.15748, -4.626508, -2.223454)" fill-opacity="1" fill="#fcfdfe" fill-rule="nonzero" stroke-linejoin="round" d="M 373.619053 263.729401 L 317.510658 263.729401 C 314.062795 263.729401 311.259856 266.53234 311.259856 269.980204 L 311.259856 330.727091 L 379.869855 330.727091 L 379.869855 269.980204 C 379.869855 266.53234 377.066916 263.729401 373.619053 263.729401 Z M 373.619053 263.729401 " stroke="#263238" stroke-width="1" stroke-opacity="1" stroke-miterlimit="10"/><path stroke-linecap="butt" transform="matrix(0.15748, 0, 0, 0.15748, -4.626508, -2.223454)" fill-opacity="1" fill="#fcfdfe" fill-rule="nonzero" stroke-linejoin="round" d="M 426.899703 436.693077 L 422.484454 436.693077 L 421.988358 354.490062 L 427.420604 354.490062 Z M 426.899703 436.693077 " stroke="#263238" stroke-width="1" stroke-opacity="1" stroke-miterlimit="10"/><path stroke-linecap="butt" transform="matrix(0.15748, 0, 0, 0.15748, -4.626508, -2.223454)" fill-opacity="1" fill="#000000" fill-rule="nonzero" stroke-linejoin="miter" d="M 421.988358 357.987535 L 427.395799 357.987535 L 427.420604 354.490062 L 421.988358 354.490062 Z M 421.988358 357.987535 " stroke="#263238" stroke-width="1" stroke-opacity="1" stroke-miterlimit="10"/><path stroke-linecap="butt" transform="matrix(0.15748, 0, 0, 0.15748, -4.626508, -2.223454)" fill-opacity="1" fill="#000000" fill-rule="nonzero" stroke-linejoin="miter" d="M 433.497773 436.693077 L 429.082523 436.693077 L 428.561623 354.490062 L 433.993868 354.490062 Z M 433.497773 436.693077 " stroke="#263238" stroke-width="1" stroke-opacity="1" stroke-miterlimit="10"/><path stroke-linecap="butt" transform="matrix(0.15748, 0, 0, 0.15748, -4.626508, -2.223454)" fill-opacity="1" fill="#fcfdfe" fill-rule="nonzero" stroke-linejoin="round" d="M 510.814247 436.693077 L 506.398998 436.693077 L 505.878098 354.490062 L 511.310343 354.490062 Z M 510.814247 436.693077 " stroke="#263238" stroke-width="1" stroke-opacity="1" stroke-miterlimit="10"/><path stroke-linecap="butt" transform="matrix(0.15748, 0, 0, 0.15748, -4.626508, -2.223454)" fill-opacity="1" fill="#000000" fill-rule="nonzero" stroke-linejoin="miter" d="M 505.902903 357.987535 L 511.310343 357.987535 L 511.310343 354.490062 L 505.878098 354.490062 Z M 505.902903 357.987535 " stroke="#263238" stroke-width="1" stroke-opacity="1" stroke-miterlimit="10"/><path stroke-linecap="butt" transform="matrix(0.15748, 0, 0, 0.15748, -4.626508, -2.223454)" fill-opacity="1" fill="#000000" fill-rule="nonzero" stroke-linejoin="miter" d="M 503.645668 436.693077 L 499.230419 436.693077 L 498.709519 354.490062 L 504.166568 354.490062 Z M 503.645668 436.693077 " stroke="#263238" stroke-width="1" stroke-opacity="1" stroke-miterlimit="10"/><path stroke-linecap="butt" transform="matrix(0.15748, 0, 0, 0.15748, -4.626508, -2.223454)" fill-opacity="1" fill="#fcfdfe" fill-rule="nonzero" stroke-linejoin="round" d="M 513.468358 348.784965 L 421.120191 348.784965 L 432.852849 330.727091 L 501.735701 330.727091 Z M 513.468358 348.784965 " stroke="#263238" stroke-width="1" stroke-opacity="1" stroke-miterlimit="10"/><path stroke-linecap="butt" transform="matrix(0.15748, 0, 0, 0.15748, -4.626508, -2.223454)" fill-opacity="1" fill="#fcfdfe" fill-rule="nonzero" stroke-linejoin="round" d="M 421.120191 348.784965 L 513.592382 348.784965 L 513.592382 354.862134 L 421.120191 354.862134 Z M 421.120191 348.784965 " stroke="#263238" stroke-width="1" stroke-opacity="1" stroke-miterlimit="10"/><path stroke-linecap="butt" transform="matrix(0.15748, 0, 0, 0.15748, -4.626508, -2.223454)" fill-opacity="1" fill="#fcfdfe" fill-rule="nonzero" stroke-linejoin="round" d="M 495.187241 263.729401 L 439.103651 263.729401 C 435.655788 263.729401 432.852849 266.53234 432.852849 269.980204 L 432.852849 330.727091 L 501.438044 330.727091 L 501.438044 269.980204 C 501.438044 266.53234 498.635104 263.729401 495.187241 263.729401 Z M 495.187241 263.729401 " stroke="#263238" stroke-width="1" stroke-opacity="1" stroke-miterlimit="10"/><path stroke-linecap="butt" transform="matrix(0.15748, 0, 0, 0.15748, -4.626508, -2.223454)" fill-opacity="1" fill="#fcfdfe" fill-rule="nonzero" stroke-linejoin="miter" d="M 444.362263 420.718804 C 444.362263 420.718804 440.86479 426.250268 439.996623 428.433088 C 439.103651 430.615908 433.001677 436.296201 431.538196 439.049531 C 430.074714 441.827665 431.984682 444.159314 438.830799 444.878652 C 445.676916 445.622795 448.132588 440.959498 449.744898 438.925507 C 451.357209 436.866711 451.357209 433.964552 453.242371 432.649899 C 455.127534 431.335246 458.773835 427.837774 459.071493 424.340301 C 459.344345 420.842828 458.625007 418.387155 458.625007 418.387155 Z M 444.362263 420.718804 " stroke="#263238" stroke-width="1" stroke-opacity="1" stroke-miterlimit="10"/><path stroke-linecap="butt" transform="matrix(0.15748, 0, 0, 0.15748, -4.626508, -2.223454)" fill-opacity="1" fill="#fcfdfe" fill-rule="nonzero" stroke-linejoin="miter" d="M 459.071493 424.340301 C 459.220321 422.380724 459.071493 420.743609 458.897859 419.677004 C 458.674616 420.619585 458.476178 421.710995 458.32735 423.050453 C 457.75684 428.135431 451.630061 430.020594 450.315408 432.947557 C 449.02556 435.849715 447.115593 441.678836 441.732957 442.844661 C 437.764193 443.712828 433.22492 441.480398 431.116515 440.24016 C 430.744443 442.472589 432.976872 444.258533 438.830799 444.878652 C 445.652111 445.622795 448.132588 440.959498 449.744898 438.925507 C 451.332404 436.866711 451.332404 433.964552 453.242371 432.649899 C 455.127534 431.335246 458.773835 427.837774 459.071493 424.340301 Z M 459.071493 424.340301 " stroke="#263238" stroke-width="1" stroke-opacity="1" stroke-miterlimit="10"/><path stroke-linecap="butt" transform="matrix(0.15748, 0, 0, 0.15748, -4.626508, -2.223454)" fill-opacity="1" fill="#fcfdfe" fill-rule="nonzero" stroke-linejoin="miter" d="M 492.905202 420.718804 C 492.905202 420.718804 496.402675 426.250268 497.270842 428.433088 C 498.139009 430.615908 504.265788 436.296201 505.704464 439.049531 C 507.167946 441.827665 505.282783 444.159314 498.436666 444.878652 C 491.590549 445.622795 489.110072 440.959498 487.522566 438.925507 C 485.910256 436.866711 485.910256 433.964552 484.025094 432.649899 C 482.115126 431.335246 478.468825 427.837774 478.195972 424.340301 C 477.898315 420.842828 478.617653 418.387155 478.617653 418.387155 Z M 492.905202 420.718804 " stroke="#263238" stroke-width="1" stroke-opacity="1" stroke-miterlimit="10"/><path stroke-linecap="butt" transform="matrix(0.15748, 0, 0, 0.15748, -4.626508, -2.223454)" fill-opacity="1" fill="#fcfdfe" fill-rule="nonzero" stroke-linejoin="miter" d="M 478.195972 424.340301 C 478.022339 422.380724 478.195972 420.743609 478.344801 419.677004 C 478.568044 420.619585 478.766482 421.710995 478.91531 423.050453 C 479.510625 428.135431 485.612599 430.020594 486.927252 432.947557 C 488.241905 435.849715 490.127067 441.678836 495.509703 442.844661 C 499.503271 443.712828 504.01774 441.480398 506.126145 440.24016 C 506.498217 442.472589 504.265788 444.258533 498.436666 444.878652 C 491.590549 445.622795 489.110072 440.959498 487.522566 438.925507 C 485.910256 436.866711 485.910256 433.964552 484.025094 432.649899 C 482.115126 431.335246 478.468825 427.837774 478.195972 424.340301 Z M 478.195972 424.340301 " stroke="#263238" stroke-width="1" stroke-opacity="1" stroke-miterlimit="10"/><path stroke-linecap="butt" transform="matrix(0.15748, 0, 0, 0.15748, -4.626508, -2.223454)" fill-opacity="1" fill="#000000" fill-rule="nonzero" stroke-linejoin="miter" d="M 515.080668 347.743164 C 515.080668 342.78221 501.438044 323.955388 501.438044 323.955388 L 496.501894 312.27234 L 471.300245 314.653598 L 465.495929 314.653598 L 440.29428 312.27234 L 435.358131 323.955388 C 435.358131 323.955388 421.690701 342.78221 421.690701 347.743164 C 421.690701 352.679314 422.286016 354.266819 422.286016 354.266819 L 444.263044 414.219954 L 442.4771 418.362351 L 443.270853 421.537361 C 443.270853 421.537361 446.048987 423.91862 451.382013 423.91862 C 456.715039 423.91862 459.89005 420.743609 459.89005 420.743609 C 459.89005 420.743609 460.485365 414.219954 460.485365 411.838696 C 460.485365 409.457437 456.119725 397.997633 456.119725 395.616375 C 456.119725 393.235116 451.977328 349.925984 451.977328 349.925984 L 467.430701 338.98708 L 469.365473 338.98708 L 484.818846 349.925984 C 484.818846 349.925984 480.651644 393.235116 480.651644 395.616375 C 480.651644 397.997633 476.310809 409.457437 476.310809 411.838696 C 476.310809 414.219954 476.906124 420.743609 476.906124 420.743609 C 476.906124 420.743609 480.081135 423.91862 485.414161 423.91862 C 490.747187 423.91862 493.525321 421.537361 493.525321 421.537361 L 494.319074 418.362351 L 492.53313 414.219954 L 514.485354 354.266819 C 514.485354 354.266819 515.080668 352.679314 515.080668 347.743164 Z M 515.080668 347.743164 " stroke="#263238" stroke-width="1" stroke-opacity="1" stroke-miterlimit="10"/><path stroke-linecap="butt" transform="matrix(0.15748, 0, 0, 0.15748, -4.626508, -2.223454)" fill="none" stroke-linejoin="miter" d="M 470.977783 336.407384 C 470.977783 336.407384 478.890506 324.525898 488.589172 321.177253 " stroke="#7d7d7d" stroke-width="1" stroke-opacity="1" stroke-miterlimit="10"/><path stroke-linecap="butt" transform="matrix(0.15748, 0, 0, 0.15748, -4.626508, -2.223454)" fill="none" stroke-linejoin="miter" d="M 479.48582 328.891538 C 479.48582 328.891538 486.803228 323.161635 493.922198 322.367883 " stroke="#7d7d7d" stroke-width="1" stroke-opacity="1" stroke-miterlimit="10"/><path stroke-linecap="butt" transform="matrix(0.15748, 0, 0, 0.15748, -4.626508, -2.223454)" fill="none" stroke-linejoin="miter" d="M 454.557024 325.121212 C 454.557024 325.121212 461.080679 329.883728 464.032447 334.819878 " stroke="#7d7d7d" stroke-width="1" stroke-opacity="1" stroke-miterlimit="10"/><path stroke-linecap="butt" transform="matrix(0.15748, 0, 0, 0.15748, -4.626508, -2.223454)" fill-opacity="1" fill="#ff985e" fill-rule="nonzero" stroke-linejoin="round" d="M 453.96171 237.287514 L 429.801862 246.390866 L 434.961254 290.49375 C 434.961254 290.49375 436.747198 312.669217 438.508337 313.462969 C 440.29428 314.256722 463.437133 318.002243 467.802773 317.803804 C 472.143608 317.605366 495.311265 317.010052 497.866156 312.867655 C 500.445853 308.700453 507.564822 248.152004 507.366384 246.589304 C 507.167946 245.001798 477.104562 234.50938 477.104562 234.50938 Z M 453.96171 237.287514 " stroke="#263238" stroke-width="1" stroke-opacity="1" stroke-miterlimit="10"/><path stroke-linecap="butt" transform="matrix(0.15748, 0, 0, 0.15748, -4.626508, -2.223454)" fill-opacity="1" fill="#fcfdfe" fill-rule="nonzero" stroke-linejoin="round" d="M 459.096298 253.708273 L 466.413705 262.414748 L 474.524866 253.906711 C 474.524866 253.906711 479.882697 239.643967 479.684258 238.081267 C 479.48582 236.493761 475.715495 233.715627 475.715495 233.715627 L 462.07287 233.318751 L 452.572642 237.68439 Z M 459.096298 253.708273 " stroke="#263238" stroke-width="1" stroke-opacity="1" stroke-miterlimit="10"/><path stroke-linecap="butt" transform="matrix(0.15748, 0, 0, 0.15748, -4.626508, -2.223454)" fill-opacity="1" fill="#fcfdfe" fill-rule="nonzero" stroke-linejoin="round" d="M 457.111916 230.937492 L 451.977328 236.6922 L 459.096298 253.708273 L 466.016829 246.787742 L 474.524866 253.906711 C 474.524866 253.906711 478.692067 244.208046 479.684258 241.628349 C 480.651644 239.073458 480.651644 235.501571 480.651644 235.501571 L 475.318618 229.970106 Z M 457.111916 230.937492 " stroke="#263238" stroke-width="1" stroke-opacity="1" stroke-miterlimit="10"/><path stroke-linecap="butt" transform="matrix(0.15748, 0, 0, 0.15748, -4.626508, -2.223454)" fill-opacity="1" fill="#fcfdfe" fill-rule="nonzero" stroke-linejoin="round" d="M 455.127534 228.382601 L 456.119725 234.906256 L 466.016829 246.787742 L 477.104562 234.50938 L 477.699877 227.191972 L 465.421514 233.120312 Z M 455.127534 228.382601 " stroke="#263238" stroke-width="1" stroke-opacity="1" stroke-miterlimit="10"/><path stroke-linecap="butt" transform="matrix(0.15748, 0, 0, 0.15748, -4.626508, -2.223454)" fill-opacity="1" fill="#fcfdfe" fill-rule="nonzero" stroke-linejoin="round" d="M 449.397632 208.786831 C 449.397632 208.786831 447.41325 209.183707 447.611688 212.557156 C 447.810126 215.905801 452.771081 219.874564 452.771081 219.874564 L 451.183575 207.79464 Z M 449.397632 208.786831 " stroke="#263238" stroke-width="1" stroke-opacity="1" stroke-miterlimit="10"/><path stroke-linecap="butt" transform="matrix(0.15748, 0, 0, 0.15748, -4.626508, -2.223454)" fill-opacity="1" fill="#fcfdfe" fill-rule="nonzero" stroke-linejoin="round" d="M 450.786699 206.207135 C 450.786699 206.207135 452.572642 226.001343 453.763272 227.985725 C 454.929096 229.970106 462.07287 237.68439 465.223076 238.081267 C 466.909801 238.279705 477.898315 230.739054 478.692067 227.588848 C 479.48582 224.413837 480.453206 218.287059 480.453206 218.287059 C 480.453206 218.287059 482.834464 218.485497 484.223532 212.954033 C 485.612599 207.397764 483.429779 206.405573 482.437588 206.405573 C 481.445397 206.405573 480.850083 206.405573 480.850083 206.405573 C 480.850083 206.405573 480.453206 198.294412 479.882697 196.731712 C 479.287382 195.144206 452.969519 198.889727 450.588261 200.874109 C 448.207003 202.85849 450.786699 206.207135 450.786699 206.207135 Z M 450.786699 206.207135 " stroke="#263238" stroke-width="1" stroke-opacity="1" stroke-miterlimit="10"/><path fill="#000000" d="M 69.835938 32.089844 C 69.835938 32.234375 69.773438 32.355469 69.699219 32.355469 C 69.621094 32.355469 69.558594 32.234375 69.558594 32.089844 C 69.558594 31.945312 69.621094 31.824219 69.699219 31.824219 C 69.773438 31.824219 69.835938 31.945312 69.835938 32.089844 Z M 69.835938 32.089844 " fill-opacity="1" fill-rule="nonzero"/><path fill="#000000" d="M 67.71875 32.011719 C 67.71875 32.160156 67.65625 32.277344 67.578125 32.277344 C 67.5 32.277344 67.4375 32.160156 67.4375 32.011719 C 67.4375 31.867188 67.5 31.746094 67.578125 31.746094 C 67.65625 31.746094 67.71875 31.867188 67.71875 32.011719 Z M 67.71875 32.011719 " fill-opacity="1" fill-rule="nonzero"/><path stroke-linecap="butt" transform="matrix(0.15748, 0, 0, 0.15748, -4.626508, -2.223454)" fill="none" stroke-linejoin="round" d="M 463.238694 223.223208 C 463.238694 223.223208 463.065061 225.009152 464.230885 225.604466 C 465.421514 226.199781 467.802773 225.604466 468.001211 223.223208 " stroke="#263238" stroke-width="1" stroke-opacity="1" stroke-miterlimit="10"/><path stroke-linecap="butt" transform="matrix(0.15748, 0, 0, 0.15748, -4.626508, -2.223454)" fill="none" stroke-linejoin="round" d="M 463.834009 229.374792 L 466.612143 229.374792 " stroke="#263238" stroke-width="1" stroke-opacity="1" stroke-miterlimit="10"/><path stroke-linecap="round" transform="matrix(0.15748, 0, 0, 0.15748, -4.626508, -2.223454)" fill="none" stroke-linejoin="round" d="M 454.358586 213.350909 L 461.080679 213.350909 " stroke="#263238" stroke-width="2" stroke-opacity="1" stroke-miterlimit="10"/><path stroke-linecap="round" transform="matrix(0.15748, 0, 0, 0.15748, -4.626508, -2.223454)" fill="none" stroke-linejoin="round" d="M 468.001211 212.755595 C 468.001211 212.755595 472.342046 210.175898 474.723304 212.755595 " stroke="#263238" stroke-width="2" stroke-opacity="1" stroke-miterlimit="10"/><path stroke-linecap="butt" transform="matrix(0.15748, 0, 0, 0.15748, -4.626508, -2.223454)" fill="none" stroke-linejoin="round" d="M 455.52441 219.27925 L 458.897859 220.073002 " stroke="#263238" stroke-width="1" stroke-opacity="1" stroke-miterlimit="10"/><path stroke-linecap="butt" transform="matrix(0.15748, 0, 0, 0.15748, -4.626508, -2.223454)" fill="none" stroke-linejoin="round" d="M 475.12018 218.882373 L 471.37466 220.668317 " stroke="#263238" stroke-width="1" stroke-opacity="1" stroke-miterlimit="10"/><path stroke-linecap="butt" transform="matrix(0.15748, 0, 0, 0.15748, -4.626508, -2.223454)" fill-opacity="1" fill="#000000" fill-rule="nonzero" stroke-linejoin="round" d="M 481.048521 189.191061 C 479.733868 186.710584 466.810582 181.278339 459.096298 185.643979 C 459.096298 185.643979 449.000755 189.191061 445.652111 197.302221 C 442.998 203.677048 444.039801 206.728035 448.479855 207.472178 L 451.77889 216.897991 L 451.382013 214.119857 L 450.885918 207.670616 C 451.555647 207.670616 452.225376 207.645811 452.969519 207.596202 C 461.080679 207.000887 468.199649 205.239749 471.771536 203.652243 C 475.318618 202.064738 477.104562 200.080356 477.104562 200.080356 C 477.104562 200.080356 476.906124 204.247558 477.104562 205.810258 C 477.303 207.397764 479.48582 209.183707 479.48582 209.183707 L 479.684258 215.310486 L 480.850083 215.112048 L 481.643835 208.191516 L 482.636026 205.438187 C 483.33056 206.405573 485.091699 196.781321 481.048521 189.191061 Z M 481.048521 189.191061 " stroke="#263238" stroke-width="1" stroke-opacity="1" stroke-miterlimit="10"/><path stroke-linecap="butt" transform="matrix(0.15748, 0, 0, 0.15748, -4.626508, -2.223454)" fill="none" stroke-linejoin="round" d="M 489.556558 263.605377 L 497.667718 273.676115 " stroke="#263238" stroke-width="1" stroke-opacity="1" stroke-miterlimit="10"/><path stroke-linecap="butt" transform="matrix(0.15748, 0, 0, 0.15748, -4.626508, -2.223454)" fill-opacity="1" fill="#ff985e" fill-rule="nonzero" stroke-linejoin="round" d="M 495.509703 260.827243 L 498.659909 284.168533 L 468.199649 288.732612 L 468.398087 300.986169 L 473.334237 301.383045 C 473.334237 301.383045 476.906124 304.16118 481.246959 304.16118 C 485.612599 304.16118 507.961699 301.383045 511.930462 300.390854 C 515.874421 299.398664 518.255679 298.431277 518.652555 294.660952 C 519.049432 290.890627 510.541395 251.327015 509.94608 248.747319 C 509.350766 246.192427 499.6521 243.215855 499.6521 243.215855 " stroke="#263238" stroke-width="1" stroke-opacity="1" stroke-miterlimit="10"/><path stroke-linecap="butt" transform="matrix(0.15748, 0, 0, 0.15748, -4.626508, -2.223454)" fill="none" stroke-linejoin="round" d="M 507.76326 286.351353 C 504.414616 283.970095 498.659909 284.168533 498.659909 284.168533 C 498.659909 284.168533 503.620863 281.985714 507.564822 283.374781 " stroke="#263238" stroke-width="1" stroke-opacity="1" stroke-miterlimit="10"/><path stroke-linecap="butt" transform="matrix(0.15748, 0, 0, 0.15748, -4.626508, -2.223454)" fill="none" stroke-linejoin="round" d="M 473.334237 288.93105 L 473.731113 300.390854 " stroke="#263238" stroke-width="1" stroke-opacity="1" stroke-miterlimit="10"/><path stroke-linecap="butt" transform="matrix(0.15748, 0, 0, 0.15748, -4.626508, -2.223454)" fill-opacity="1" fill="#fcfdfe" fill-rule="nonzero" stroke-linejoin="round" d="M 468.199649 288.732612 L 458.302545 288.137297 L 446.247426 282.184152 L 444.064606 283.374781 C 444.064606 283.374781 439.500528 291.882818 440.492718 292.478132 C 441.484909 293.073447 442.873977 294.85939 443.667729 294.85939 C 444.461482 294.85939 446.247426 293.470323 446.247426 293.470323 C 446.247426 293.470323 450.985137 298.232839 453.96171 298.232839 C 456.913478 298.232839 459.294736 297.04221 459.294736 297.04221 L 468.596525 298.232839 Z M 468.199649 288.732612 " stroke="#263238" stroke-width="1" stroke-opacity="1" stroke-miterlimit="10"/><path stroke-linecap="butt" transform="matrix(0.15748, 0, 0, 0.15748, -4.626508, -2.223454)" fill="none" stroke-linejoin="round" d="M 446.247426 293.470323 L 443.667729 291.287503 L 443.072415 292.279694 " stroke="#263238" stroke-width="1" stroke-opacity="1" stroke-miterlimit="10"/><path stroke-linecap="butt" transform="matrix(0.15748, 0, 0, 0.15748, -4.626508, -2.223454)" fill-opacity="1" fill="#000000" fill-rule="nonzero" stroke-linejoin="miter" d="M 460.485365 287.740421 L 463.238694 287.740421 L 463.238694 297.835963 L 460.485365 297.835963 Z M 460.485365 287.740421 " stroke="#263238" stroke-width="1" stroke-opacity="1" stroke-miterlimit="10"/><path stroke-linecap="butt" transform="matrix(0.15748, 0, 0, 0.15748, -4.626508, -2.223454)" fill-opacity="1" fill="#fcfdfe" fill-rule="nonzero" stroke-linejoin="round" d="M 464.627762 288.534173 C 464.627762 288.955854 464.354909 289.327926 463.834009 289.650388 C 463.288304 289.948045 462.618575 290.096874 461.874432 290.096874 C 461.105484 290.096874 460.435755 289.948045 459.914855 289.650388 C 459.36915 289.327926 459.096298 288.955854 459.096298 288.534173 C 459.096298 288.087687 459.36915 287.715616 459.914855 287.417959 C 460.435755 287.095497 461.105484 286.946668 461.874432 286.946668 C 462.618575 286.946668 463.288304 287.095497 463.834009 287.417959 C 464.354909 287.715616 464.627762 288.087687 464.627762 288.534173 Z M 464.627762 288.534173 " stroke="#263238" stroke-width="1" stroke-opacity="1" stroke-miterlimit="10"/><path stroke-linecap="butt" transform="matrix(0.15748, 0, 0, 0.15748, -4.626508, -2.223454)" fill-opacity="1" fill="#ff985e" fill-rule="nonzero" stroke-linejoin="round" d="M 429.801862 246.390866 C 429.801862 246.390866 419.929562 301.779922 419.929562 305.153371 C 419.929562 308.502015 434.36594 322.963197 434.36594 322.963197 L 440.889595 316.613175 L 436.54876 297.637525 Z M 429.801862 246.390866 " stroke="#263238" stroke-width="1" stroke-opacity="1" stroke-miterlimit="10"/><path stroke-linecap="butt" transform="matrix(0.15748, 0, 0, 0.15748, -4.626508, -2.223454)" fill="none" stroke-linejoin="round" d="M 425.857903 299.79554 C 425.857903 299.79554 431.587805 296.645334 435.755007 297.240648 " stroke="#263238" stroke-width="1" stroke-opacity="1" stroke-miterlimit="10"/><path stroke-linecap="butt" transform="matrix(0.15748, 0, 0, 0.15748, -4.626508, -2.223454)" fill="none" stroke-linejoin="round" d="M 423.079768 299.398664 C 423.079768 299.398664 428.040723 295.454705 431.786243 295.454705 " stroke="#263238" stroke-width="1" stroke-opacity="1" stroke-miterlimit="10"/><path stroke-linecap="butt" transform="matrix(0.15748, 0, 0, 0.15748, -4.626508, -2.223454)" fill="none" stroke-linejoin="round" d="M 431.389367 319.986624 C 431.389367 319.986624 431.190929 314.058284 440.095842 313.859846 " stroke="#263238" stroke-width="1" stroke-opacity="1" stroke-miterlimit="10"/><path stroke-linecap="butt" transform="matrix(0.15748, 0, 0, 0.15748, -4.626508, -2.223454)" fill-opacity="1" fill="#fcfdfe" fill-rule="nonzero" stroke-linejoin="round" d="M 440.889595 316.613175 L 449.54646 319.490529 C 449.54646 319.490529 450.786699 321.797373 451.506037 323.955388 C 452.225376 326.088598 453.291981 328.221809 453.291981 328.767514 C 453.291981 329.313219 453.118347 330.007752 452.399009 330.007752 C 451.679671 330.007752 448.653488 327.328837 448.653488 327.328837 L 446.867545 326.435865 C 446.867545 326.435865 449.199193 329.660486 449.720094 329.834119 C 450.265799 330.007752 452.399009 331.446429 452.399009 331.446429 C 452.399009 331.446429 457.037501 329.313219 457.037501 331.099162 C 457.037501 332.885106 450.265799 336.80426 450.265799 336.80426 C 450.265799 336.80426 444.535896 335.737655 443.469291 335.018316 C 442.402686 334.298978 434.36594 322.963197 434.36594 322.963197 Z M 440.889595 316.613175 " stroke="#263238" stroke-width="1" stroke-opacity="1" stroke-miterlimit="10"/><path stroke-linecap="butt" transform="matrix(0.15748, 0, 0, 0.15748, -4.626508, -2.223454)" fill-opacity="1" fill="#fcfdfe" fill-rule="nonzero" stroke-linejoin="round" d="M 104.884152 64.001376 L 267.553847 64.001376 L 267.553847 431.50888 L 104.884152 431.50888 Z M 104.884152 64.001376 " stroke="#263238" stroke-width="1" stroke-opacity="1" stroke-miterlimit="10"/><path stroke-linecap="butt" transform="matrix(0.15748, 0, 0, 0.15748, -4.626508, -2.223454)" fill-opacity="1" fill="#fcfdfe" fill-rule="nonzero" stroke-linejoin="round" d="M 111.928707 75.0395 L 183.217622 75.0395 L 183.217622 153.025703 L 111.928707 153.025703 Z M 111.928707 75.0395 " stroke="#263238" stroke-width="1" stroke-opacity="1" stroke-miterlimit="10"/><path stroke-linecap="butt" transform="matrix(0.15748, 0, 0, 0.15748, -4.626508, -2.223454)" fill-opacity="1" fill="#fcfdfe" fill-rule="nonzero" stroke-linejoin="round" d="M 120.436744 84.341289 L 174.709585 84.341289 L 174.709585 143.723914 L 120.436744 143.723914 Z M 120.436744 84.341289 " stroke="#263238" stroke-width="1" stroke-opacity="1" stroke-miterlimit="10"/><path stroke-linecap="butt" transform="matrix(0.15748, 0, 0, 0.15748, -4.626508, -2.223454)" fill-opacity="1" fill="#fcfdfe" fill-rule="nonzero" stroke-linejoin="round" d="M 120.436744 84.341289 L 111.928707 75.0395 " stroke="#263238" stroke-width="1" stroke-opacity="1" stroke-miterlimit="10"/><path stroke-linecap="butt" transform="matrix(0.15748, 0, 0, 0.15748, -4.626508, -2.223454)" fill-opacity="1" fill="#fcfdfe" fill-rule="nonzero" stroke-linejoin="round" d="M 120.436744 143.723914 L 111.928707 153.025703 " stroke="#263238" stroke-width="1" stroke-opacity="1" stroke-miterlimit="10"/><path stroke-linecap="butt" transform="matrix(0.15748, 0, 0, 0.15748, -4.626508, -2.223454)" fill-opacity="1" fill="#fcfdfe" fill-rule="nonzero" stroke-linejoin="round" d="M 174.709585 84.341289 L 183.217622 75.0395 " stroke="#263238" stroke-width="1" stroke-opacity="1" stroke-miterlimit="10"/><path stroke-linecap="butt" transform="matrix(0.15748, 0, 0, 0.15748, -4.626508, -2.223454)" fill-opacity="1" fill="#fcfdfe" fill-rule="nonzero" stroke-linejoin="round" d="M 174.709585 143.723914 L 183.217622 153.025703 " stroke="#263238" stroke-width="1" stroke-opacity="1" stroke-miterlimit="10"/><path stroke-linecap="butt" transform="matrix(0.15748, 0, 0, 0.15748, -4.626508, -2.223454)" fill-opacity="1" fill="#fcfdfe" fill-rule="nonzero" stroke-linejoin="round" d="M 188.947524 75.0395 L 260.236439 75.0395 L 260.236439 153.025703 L 188.947524 153.025703 Z M 188.947524 75.0395 " stroke="#263238" stroke-width="1" stroke-opacity="1" stroke-miterlimit="10"/><path stroke-linecap="butt" transform="matrix(0.15748, 0, 0, 0.15748, -4.626508, -2.223454)" fill-opacity="1" fill="#fcfdfe" fill-rule="nonzero" stroke-linejoin="round" d="M 197.430756 84.341289 L 251.728403 84.341289 L 251.728403 143.723914 L 197.430756 143.723914 Z M 197.430756 84.341289 " stroke="#263238" stroke-width="1" stroke-opacity="1" stroke-miterlimit="10"/><path stroke-linecap="butt" transform="matrix(0.15748, 0, 0, 0.15748, -4.626508, -2.223454)" fill-opacity="1" fill="#fcfdfe" fill-rule="nonzero" stroke-linejoin="round" d="M 197.430756 84.341289 L 188.947524 75.0395 " stroke="#263238" stroke-width="1" stroke-opacity="1" stroke-miterlimit="10"/><path stroke-linecap="butt" transform="matrix(0.15748, 0, 0, 0.15748, -4.626508, -2.223454)" fill-opacity="1" fill="#fcfdfe" fill-rule="nonzero" stroke-linejoin="round" d="M 197.430756 143.723914 L 188.947524 153.025703 " stroke="#263238" stroke-width="1" stroke-opacity="1" stroke-miterlimit="10"/><path stroke-linecap="butt" transform="matrix(0.15748, 0, 0, 0.15748, -4.626508, -2.223454)" fill-opacity="1" fill="#fcfdfe" fill-rule="nonzero" stroke-linejoin="round" d="M 251.728403 84.341289 L 260.236439 75.0395 " stroke="#263238" stroke-width="1" stroke-opacity="1" stroke-miterlimit="10"/><path stroke-linecap="butt" transform="matrix(0.15748, 0, 0, 0.15748, -4.626508, -2.223454)" fill-opacity="1" fill="#fcfdfe" fill-rule="nonzero" stroke-linejoin="round" d="M 251.728403 143.723914 L 260.236439 153.025703 " stroke="#263238" stroke-width="1" stroke-opacity="1" stroke-miterlimit="10"/><path stroke-linecap="butt" transform="matrix(0.15748, 0, 0, 0.15748, -4.626508, -2.223454)" fill-opacity="1" fill="#fcfdfe" fill-rule="nonzero" stroke-linejoin="round" d="M 111.928707 161.062449 L 183.217622 161.062449 L 183.217622 239.048653 L 111.928707 239.048653 Z M 111.928707 161.062449 " stroke="#263238" stroke-width="1" stroke-opacity="1" stroke-miterlimit="10"/><path stroke-linecap="butt" transform="matrix(0.15748, 0, 0, 0.15748, -4.626508, -2.223454)" fill-opacity="1" fill="#fcfdfe" fill-rule="nonzero" stroke-linejoin="round" d="M 120.436744 170.364239 L 174.709585 170.364239 L 174.709585 229.746863 L 120.436744 229.746863 Z M 120.436744 170.364239 " stroke="#263238" stroke-width="1" stroke-opacity="1" stroke-miterlimit="10"/><path stroke-linecap="butt" transform="matrix(0.15748, 0, 0, 0.15748, -4.626508, -2.223454)" fill-opacity="1" fill="#fcfdfe" fill-rule="nonzero" stroke-linejoin="round" d="M 120.436744 170.364239 L 111.928707 161.062449 " stroke="#263238" stroke-width="1" stroke-opacity="1" stroke-miterlimit="10"/><path stroke-linecap="butt" transform="matrix(0.15748, 0, 0, 0.15748, -4.626508, -2.223454)" fill-opacity="1" fill="#fcfdfe" fill-rule="nonzero" stroke-linejoin="round" d="M 120.436744 229.746863 L 111.928707 239.048653 " stroke="#263238" stroke-width="1" stroke-opacity="1" stroke-miterlimit="10"/><path stroke-linecap="butt" transform="matrix(0.15748, 0, 0, 0.15748, -4.626508, -2.223454)" fill-opacity="1" fill="#fcfdfe" fill-rule="nonzero" stroke-linejoin="round" d="M 174.709585 170.364239 L 183.217622 161.062449 " stroke="#263238" stroke-width="1" stroke-opacity="1" stroke-miterlimit="10"/><path stroke-linecap="butt" transform="matrix(0.15748, 0, 0, 0.15748, -4.626508, -2.223454)" fill-opacity="1" fill="#fcfdfe" fill-rule="nonzero" stroke-linejoin="round" d="M 174.709585 229.746863 L 183.217622 239.048653 " stroke="#263238" stroke-width="1" stroke-opacity="1" stroke-miterlimit="10"/><path stroke-linecap="butt" transform="matrix(0.15748, 0, 0, 0.15748, -4.626508, -2.223454)" fill-opacity="1" fill="#fcfdfe" fill-rule="nonzero" stroke-linejoin="round" d="M 188.947524 161.062449 L 260.236439 161.062449 L 260.236439 239.048653 L 188.947524 239.048653 Z M 188.947524 161.062449 " stroke="#263238" stroke-width="1" stroke-opacity="1" stroke-miterlimit="10"/><path stroke-linecap="butt" transform="matrix(0.15748, 0, 0, 0.15748, -4.626508, -2.223454)" fill-opacity="1" fill="#fcfdfe" fill-rule="nonzero" stroke-linejoin="round" d="M 197.430756 170.364239 L 251.728403 170.364239 L 251.728403 229.746863 L 197.430756 229.746863 Z M 197.430756 170.364239 " stroke="#263238" stroke-width="1" stroke-opacity="1" stroke-miterlimit="10"/><path stroke-linecap="butt" transform="matrix(0.15748, 0, 0, 0.15748, -4.626508, -2.223454)" fill-opacity="1" fill="#fcfdfe" fill-rule="nonzero" stroke-linejoin="round" d="M 197.430756 170.364239 L 188.947524 161.062449 " stroke="#263238" stroke-width="1" stroke-opacity="1" stroke-miterlimit="10"/><path stroke-linecap="butt" transform="matrix(0.15748, 0, 0, 0.15748, -4.626508, -2.223454)" fill-opacity="1" fill="#fcfdfe" fill-rule="nonzero" stroke-linejoin="round" d="M 197.430756 229.746863 L 188.947524 239.048653 " stroke="#263238" stroke-width="1" stroke-opacity="1" stroke-miterlimit="10"/><path stroke-linecap="butt" transform="matrix(0.15748, 0, 0, 0.15748, -4.626508, -2.223454)" fill-opacity="1" fill="#fcfdfe" fill-rule="nonzero" stroke-linejoin="round" d="M 251.728403 170.364239 L 260.236439 161.062449 " stroke="#263238" stroke-width="1" stroke-opacity="1" stroke-miterlimit="10"/><path stroke-linecap="butt" transform="matrix(0.15748, 0, 0, 0.15748, -4.626508, -2.223454)" fill-opacity="1" fill="#fcfdfe" fill-rule="nonzero" stroke-linejoin="round" d="M 251.728403 229.746863 L 260.236439 239.048653 " stroke="#263238" stroke-width="1" stroke-opacity="1" stroke-miterlimit="10"/><path stroke-linecap="butt" transform="matrix(0.15748, 0, 0, 0.15748, -4.626508, -2.223454)" fill-opacity="1" fill="#fcfdfe" fill-rule="nonzero" stroke-linejoin="round" d="M 111.928707 256.114336 L 183.217622 256.114336 L 183.217622 334.10054 L 111.928707 334.10054 Z M 111.928707 256.114336 " stroke="#263238" stroke-width="1" stroke-opacity="1" stroke-miterlimit="10"/><path stroke-linecap="butt" transform="matrix(0.15748, 0, 0, 0.15748, -4.626508, -2.223454)" fill-opacity="1" fill="#fcfdfe" fill-rule="nonzero" stroke-linejoin="round" d="M 120.436744 265.416126 L 174.709585 265.416126 L 174.709585 324.79875 L 120.436744 324.79875 Z M 120.436744 265.416126 " stroke="#263238" stroke-width="1" stroke-opacity="1" stroke-miterlimit="10"/><path stroke-linecap="butt" transform="matrix(0.15748, 0, 0, 0.15748, -4.626508, -2.223454)" fill-opacity="1" fill="#fcfdfe" fill-rule="nonzero" stroke-linejoin="round" d="M 120.436744 265.416126 L 111.928707 256.114336 " stroke="#263238" stroke-width="1" stroke-opacity="1" stroke-miterlimit="10"/><path stroke-linecap="butt" transform="matrix(0.15748, 0, 0, 0.15748, -4.626508, -2.223454)" fill-opacity="1" fill="#fcfdfe" fill-rule="nonzero" stroke-linejoin="round" d="M 120.436744 324.79875 L 111.928707 334.10054 " stroke="#263238" stroke-width="1" stroke-opacity="1" stroke-miterlimit="10"/><path stroke-linecap="butt" transform="matrix(0.15748, 0, 0, 0.15748, -4.626508, -2.223454)" fill-opacity="1" fill="#fcfdfe" fill-rule="nonzero" stroke-linejoin="round" d="M 174.709585 265.416126 L 183.217622 256.114336 " stroke="#263238" stroke-width="1" stroke-opacity="1" stroke-miterlimit="10"/><path stroke-linecap="butt" transform="matrix(0.15748, 0, 0, 0.15748, -4.626508, -2.223454)" fill-opacity="1" fill="#fcfdfe" fill-rule="nonzero" stroke-linejoin="round" d="M 174.709585 324.79875 L 183.217622 334.10054 " stroke="#263238" stroke-width="1" stroke-opacity="1" stroke-miterlimit="10"/><path stroke-linecap="butt" transform="matrix(0.15748, 0, 0, 0.15748, -4.626508, -2.223454)" fill-opacity="1" fill="#fcfdfe" fill-rule="nonzero" stroke-linejoin="round" d="M 188.947524 256.114336 L 260.236439 256.114336 L 260.236439 334.10054 L 188.947524 334.10054 Z M 188.947524 256.114336 " stroke="#263238" stroke-width="1" stroke-opacity="1" stroke-miterlimit="10"/><path stroke-linecap="butt" transform="matrix(0.15748, 0, 0, 0.15748, -4.626508, -2.223454)" fill-opacity="1" fill="#fcfdfe" fill-rule="nonzero" stroke-linejoin="round" d="M 197.430756 265.416126 L 251.728403 265.416126 L 251.728403 324.79875 L 197.430756 324.79875 Z M 197.430756 265.416126 " stroke="#263238" stroke-width="1" stroke-opacity="1" stroke-miterlimit="10"/><path stroke-linecap="butt" transform="matrix(0.15748, 0, 0, 0.15748, -4.626508, -2.223454)" fill-opacity="1" fill="#fcfdfe" fill-rule="nonzero" stroke-linejoin="round" d="M 197.430756 265.416126 L 188.947524 256.114336 " stroke="#263238" stroke-width="1" stroke-opacity="1" stroke-miterlimit="10"/><path stroke-linecap="butt" transform="matrix(0.15748, 0, 0, 0.15748, -4.626508, -2.223454)" fill-opacity="1" fill="#fcfdfe" fill-rule="nonzero" stroke-linejoin="round" d="M 197.430756 324.79875 L 188.947524 334.10054 " stroke="#263238" stroke-width="1" stroke-opacity="1" stroke-miterlimit="10"/><path stroke-linecap="butt" transform="matrix(0.15748, 0, 0, 0.15748, -4.626508, -2.223454)" fill-opacity="1" fill="#fcfdfe" fill-rule="nonzero" stroke-linejoin="round" d="M 251.728403 265.416126 L 260.236439 256.114336 " stroke="#263238" stroke-width="1" stroke-opacity="1" stroke-miterlimit="10"/><path stroke-linecap="butt" transform="matrix(0.15748, 0, 0, 0.15748, -4.626508, -2.223454)" fill-opacity="1" fill="#fcfdfe" fill-rule="nonzero" stroke-linejoin="round" d="M 251.728403 324.79875 L 260.236439 334.10054 " stroke="#263238" stroke-width="1" stroke-opacity="1" stroke-miterlimit="10"/><path stroke-linecap="butt" transform="matrix(0.15748, 0, 0, 0.15748, -4.626508, -2.223454)" fill-opacity="1" fill="#fcfdfe" fill-rule="nonzero" stroke-linejoin="round" d="M 111.928707 342.137286 L 183.217622 342.137286 L 183.217622 420.123489 L 111.928707 420.123489 Z M 111.928707 342.137286 " stroke="#263238" stroke-width="1" stroke-opacity="1" stroke-miterlimit="10"/><path stroke-linecap="butt" transform="matrix(0.15748, 0, 0, 0.15748, -4.626508, -2.223454)" fill-opacity="1" fill="#fcfdfe" fill-rule="nonzero" stroke-linejoin="round" d="M 120.436744 351.439075 L 174.709585 351.439075 L 174.709585 410.8217 L 120.436744 410.8217 Z M 120.436744 351.439075 " stroke="#263238" stroke-width="1" stroke-opacity="1" stroke-miterlimit="10"/><path stroke-linecap="butt" transform="matrix(0.15748, 0, 0, 0.15748, -4.626508, -2.223454)" fill-opacity="1" fill="#fcfdfe" fill-rule="nonzero" stroke-linejoin="round" d="M 120.436744 351.439075 L 111.928707 342.137286 " stroke="#263238" stroke-width="1" stroke-opacity="1" stroke-miterlimit="10"/><path stroke-linecap="butt" transform="matrix(0.15748, 0, 0, 0.15748, -4.626508, -2.223454)" fill-opacity="1" fill="#fcfdfe" fill-rule="nonzero" stroke-linejoin="round" d="M 120.436744 410.8217 L 111.928707 420.123489 " stroke="#263238" stroke-width="1" stroke-opacity="1" stroke-miterlimit="10"/><path stroke-linecap="butt" transform="matrix(0.15748, 0, 0, 0.15748, -4.626508, -2.223454)" fill-opacity="1" fill="#fcfdfe" fill-rule="nonzero" stroke-linejoin="round" d="M 174.709585 351.439075 L 183.217622 342.137286 " stroke="#263238" stroke-width="1" stroke-opacity="1" stroke-miterlimit="10"/><path stroke-linecap="butt" transform="matrix(0.15748, 0, 0, 0.15748, -4.626508, -2.223454)" fill-opacity="1" fill="#fcfdfe" fill-rule="nonzero" stroke-linejoin="round" d="M 174.709585 410.8217 L 183.217622 420.123489 " stroke="#263238" stroke-width="1" stroke-opacity="1" stroke-miterlimit="10"/><path stroke-linecap="butt" transform="matrix(0.15748, 0, 0, 0.15748, -4.626508, -2.223454)" fill-opacity="1" fill="#fcfdfe" fill-rule="nonzero" stroke-linejoin="round" d="M 188.947524 342.137286 L 260.236439 342.137286 L 260.236439 420.123489 L 188.947524 420.123489 Z M 188.947524 342.137286 " stroke="#263238" stroke-width="1" stroke-opacity="1" stroke-miterlimit="10"/><path stroke-linecap="butt" transform="matrix(0.15748, 0, 0, 0.15748, -4.626508, -2.223454)" fill-opacity="1" fill="#fcfdfe" fill-rule="nonzero" stroke-linejoin="round" d="M 197.430756 351.439075 L 251.728403 351.439075 L 251.728403 410.8217 L 197.430756 410.8217 Z M 197.430756 351.439075 " stroke="#263238" stroke-width="1" stroke-opacity="1" stroke-miterlimit="10"/><path stroke-linecap="butt" transform="matrix(0.15748, 0, 0, 0.15748, -4.626508, -2.223454)" fill-opacity="1" fill="#fcfdfe" fill-rule="nonzero" stroke-linejoin="round" d="M 197.430756 351.439075 L 188.947524 342.137286 " stroke="#263238" stroke-width="1" stroke-opacity="1" stroke-miterlimit="10"/><path stroke-linecap="butt" transform="matrix(0.15748, 0, 0, 0.15748, -4.626508, -2.223454)" fill-opacity="1" fill="#fcfdfe" fill-rule="nonzero" stroke-linejoin="round" d="M 197.430756 410.8217 L 188.947524 420.123489 " stroke="#263238" stroke-width="1" stroke-opacity="1" stroke-miterlimit="10"/><path stroke-linecap="butt" transform="matrix(0.15748, 0, 0, 0.15748, -4.626508, -2.223454)" fill-opacity="1" fill="#fcfdfe" fill-rule="nonzero" stroke-linejoin="round" d="M 251.728403 351.439075 L 260.236439 342.137286 " stroke="#263238" stroke-width="1" stroke-opacity="1" stroke-miterlimit="10"/><path stroke-linecap="butt" transform="matrix(0.15748, 0, 0, 0.15748, -4.626508, -2.223454)" fill-opacity="1" fill="#fcfdfe" fill-rule="nonzero" stroke-linejoin="round" d="M 251.728403 410.8217 L 260.236439 420.123489 " stroke="#263238" stroke-width="1" stroke-opacity="1" stroke-miterlimit="10"/><path stroke-linecap="butt" transform="matrix(0.155433, -0.0252913, 0.0252913, 0.155433, -10.360724, 4.733719)" fill-opacity="1" fill="#fcfdfe" fill-rule="nonzero" stroke-linejoin="round" d="M 262.533997 247.418428 C 262.525528 248.397177 262.34966 249.323557 261.973943 250.24255 C 261.602209 251.13706 261.071044 251.930233 260.380448 252.622069 C 259.689851 253.313906 258.900741 253.838924 257.984651 254.217624 C 257.093043 254.600307 256.159857 254.775172 255.181107 254.766703 C 254.198373 254.782718 253.251494 254.578383 252.356985 254.20665 C 251.462475 253.834916 250.669302 253.303751 249.977465 252.613154 C 249.285628 251.922558 248.736127 251.129464 248.377927 250.241841 C 247.999228 249.32575 247.799879 248.38858 247.808348 247.40983 C 247.816817 246.43108 247.992684 245.5047 248.368402 244.585708 C 248.740135 243.691198 249.2713 242.898025 249.961897 242.206188 C 250.652493 241.514351 251.466087 240.993317 252.357694 240.610634 C 253.249301 240.227951 254.206971 240.057069 255.161237 240.061554 C 256.143971 240.04554 257.09085 240.249874 257.98536 240.621608 C 258.904353 240.997325 259.697526 241.528491 260.389363 242.219087 C 261.081199 242.909683 261.606218 243.698793 261.988901 244.590401 C 262.343117 245.502507 262.542465 246.439678 262.533997 247.418428 Z M 262.533997 247.418428 " stroke="#263238" stroke-width="1" stroke-opacity="1" stroke-miterlimit="10"/><path stroke-linecap="butt" transform="matrix(0.15748, 0, 0, 0.15748, -4.626508, -2.223454)" fill-opacity="1" fill="#fcfdfe" fill-rule="nonzero" stroke-linejoin="round" d="M 257.855181 247.407861 C 257.855181 245.94438 256.664552 244.728946 255.176266 244.728946 C 253.68798 244.728946 252.49735 245.94438 252.49735 247.407861 C 252.49735 248.896147 253.68798 250.086777 255.176266 250.086777 C 256.664552 250.086777 257.855181 248.896147 257.855181 247.407861 Z M 257.855181 247.407861 " stroke="#263238" stroke-width="1" stroke-opacity="1" stroke-miterlimit="10"/></svg>